# Blender 3.6.1
# www.blender.org
mtllib msx.mtl
o MSX
v -0.033952 0.000000 -0.362894
v -0.005954 0.000000 -0.366514
v -0.005954 1.200000 -0.366514
v -0.033952 1.200000 -0.362894
v -0.060109 1.200000 -0.352273
v -0.060109 0.000000 -0.352273
v -0.082704 1.200000 -0.335348
v -0.082704 0.000000 -0.335348
v -0.100252 0.000000 -0.313234
v -0.100252 1.200000 -0.313234
v -0.111599 0.000000 -0.287383
v -0.111599 1.200000 -0.287383
v -0.115998 0.000000 -0.259497
v -0.115998 1.200000 -0.259497
v -0.113160 1.200000 -0.231409
v -0.113160 0.000000 -0.231409
v -0.103272 0.000000 -0.204967
v -0.103272 1.200000 -0.204967
v -0.086983 0.000000 -0.181908
v -0.086983 1.200000 -0.181908
v -0.065367 1.200000 -0.163751
v -0.065367 0.000000 -0.163751
v -0.039842 0.000000 -0.151688
v -0.039842 1.200000 -0.151688
v -0.012090 1.200000 -0.146514
v -0.012090 0.000000 -0.146514
v 0.463724 1.200000 -0.146514
v 0.463724 0.000000 -0.146514
v 0.568536 1.200000 1.185237
v 0.463724 1.200000 1.193486
v 0.463724 0.000000 1.193486
v 0.670766 1.200000 1.160694
v 0.568536 0.000000 1.185237
v 0.767898 1.200000 1.120461
v 0.670766 0.000000 1.160694
v 0.767898 0.000000 1.120461
v 0.857541 1.200000 1.065527
v 0.857541 0.000000 1.065527
v 0.937486 1.200000 0.997248
v 0.937486 0.000000 0.997248
v 1.005766 1.200000 0.917302
v 1.005766 0.000000 0.917302
v 1.060699 1.200000 0.827660
v 1.060699 0.000000 0.827660
v 1.100932 1.200000 0.730527
v 1.100932 0.000000 0.730527
v 1.125476 1.200000 0.628297
v 1.125476 0.000000 0.628297
v 1.133724 1.200000 0.523486
v 1.133724 0.000000 0.523486
v 1.125476 1.200000 0.418675
v 1.125476 0.000000 0.418675
v 1.100932 1.200000 0.316445
v 1.100932 0.000000 0.316445
v 1.060699 1.200000 0.219312
v 1.060699 0.000000 0.219312
v 1.005766 0.000000 0.129670
v 1.005766 1.200000 0.129670
v 0.937486 0.000000 0.049725
v 0.937486 1.200000 0.049725
v 0.857541 1.200000 -0.018555
v 0.857541 0.000000 -0.018555
v 0.767898 0.000000 -0.073488
v 0.767898 1.200000 -0.073488
v 0.670766 0.000000 -0.113722
v 0.670766 1.200000 -0.113722
v 0.568536 0.000000 -0.138265
v 0.568536 1.200000 -0.138265
v -1.069045 1.200000 1.193486
v -1.069045 0.000000 1.193486
v -1.293266 1.200000 0.378481
v -1.293266 0.000000 0.378481
v -1.529659 1.200000 1.211983
v -1.529659 0.000000 1.211983
v -2.084836 1.200000 1.211983
v -2.084836 0.000000 1.211983
v -2.316046 1.200000 0.371572
v -2.316046 0.000000 0.371572
v -2.554399 1.200000 1.211983
v -2.554399 0.000000 1.211983
v -3.143683 1.200000 1.211983
v -3.143683 0.000000 1.211983
v -2.542420 1.200000 -0.908017
v -2.542420 0.000000 -0.908017
v -2.048253 1.200000 -0.908017
v -2.048253 0.000000 -0.908017
v -1.804875 0.000000 -0.023380
v -1.804875 1.200000 -0.023380
v -1.553979 1.200000 -0.908017
v -1.553979 0.000000 -0.908017
v -1.058944 1.200000 -0.908017
v -1.058944 0.000000 -0.908017
v -0.634852 0.000000 0.633486
v -0.634852 1.200000 0.633486
v 0.463724 0.000000 0.633486
v 0.463724 1.200000 0.633486
v 0.492195 0.000000 0.629738
v 0.492195 1.200000 0.629738
v 0.518724 0.000000 0.618749
v 0.518724 1.200000 0.618749
v 0.541506 0.000000 0.601268
v 0.541506 1.200000 0.601268
v 0.558987 0.000000 0.578486
v 0.558987 1.200000 0.578486
v 0.569976 0.000000 0.551956
v 0.569976 1.200000 0.551956
v 0.573724 1.200000 0.523486
v 0.573724 0.000000 0.523486
v 0.569976 0.000000 0.495016
v 0.569976 1.200000 0.495016
v 0.558987 1.200000 0.468486
v 0.558987 0.000000 0.468486
v 0.541506 0.000000 0.445704
v 0.541506 1.200000 0.445704
v 0.518725 0.000000 0.428223
v 0.518725 1.200000 0.428223
v 0.492195 0.000000 0.417234
v 0.492195 1.200000 0.417234
v 0.463725 1.200000 0.413486
v 0.463725 0.000000 0.413486
v -0.005954 0.000000 0.413486
v -0.005954 1.200000 0.413486
v -0.110766 1.200000 -0.918265
v -0.005954 1.200000 -0.926514
v -0.005954 0.000000 -0.926514
v -0.110766 0.000000 -0.918265
v -0.212996 1.200000 -0.893722
v -0.212996 0.000000 -0.893722
v -0.310128 1.200000 -0.853488
v -0.310128 0.000000 -0.853488
v -0.399771 1.200000 -0.798555
v -0.399771 0.000000 -0.798555
v -0.479716 1.200000 -0.730276
v -0.479716 0.000000 -0.730276
v -0.547996 1.200000 -0.650330
v -0.602929 1.200000 -0.560688
v -0.547996 0.000000 -0.650330
v -0.602929 0.000000 -0.560688
v -0.643163 1.200000 -0.463555
v -0.643163 0.000000 -0.463555
v -0.667706 1.200000 -0.361325
v -0.667706 0.000000 -0.361325
v -0.675955 1.200000 -0.256514
v -0.675955 0.000000 -0.256514
v -0.667706 1.200000 -0.151703
v -0.667706 0.000000 -0.151703
v -0.643163 1.200000 -0.049472
v -0.643163 0.000000 -0.049472
v -0.602929 1.200000 0.047660
v -0.547996 1.200000 0.137302
v -0.602929 0.000000 0.047660
v -0.547996 0.000000 0.137302
v -0.479716 0.000000 0.217248
v -0.479716 1.200000 0.217248
v -0.399771 1.200000 0.285528
v -0.399771 0.000000 0.285528
v -0.310128 1.200000 0.340461
v -0.310128 0.000000 0.340461
v -0.212996 0.000000 0.380694
v -0.212996 1.200000 0.380694
v -0.110766 1.200000 0.405237
v -0.110766 0.000000 0.405237
v 1.710050 0.000000 -0.926514
v 1.710050 1.200000 -0.926514
v 2.061413 1.200000 -0.415448
v 2.061413 0.000000 -0.415448
v 2.420310 1.200000 -0.921647
v 2.420310 0.000000 -0.921647
v 3.106780 1.200000 -0.921647
v 3.106780 0.000000 -0.921647
v 2.390867 1.200000 0.088100
v 2.390867 0.000000 0.088100
v 3.154176 1.200000 1.198352
v 3.154176 0.000000 1.198352
v 2.474596 1.200000 1.198352
v 2.474596 0.000000 1.198352
v 2.058935 1.200000 0.593764
v 2.058935 0.000000 0.593764
v 1.633730 1.200000 1.193486
v 1.633730 0.000000 1.193486
v 0.947260 1.200000 1.193486
v 0.947260 0.000000 1.193486
v 1.729481 1.200000 0.090216
v 1.729481 0.000000 0.090216
v 1.415475 1.200000 -0.366514
v 1.415475 0.000000 -0.366514
v 0.005247 0.000000 0.142735
v 0.005247 1.200000 0.142735
vn 0.1282 -0.0000 0.9917
vn 0.3762 -0.0000 0.9265
vn 0.5995 -0.0000 0.8004
vn 0.7833 -0.0000 0.6216
vn 0.9157 -0.0000 0.4019
vn 0.9878 -0.0000 0.1558
vn 0.9949 -0.0000 -0.1005
vn 0.9367 -0.0000 -0.3503
vn 0.8168 -0.0000 -0.5770
vn 0.6432 -0.0000 -0.7657
vn 0.4273 -0.0000 -0.9041
vn 0.1833 -0.0000 -0.9831
vn -0.0000 -0.0000 -1.0000
vn 0.0785 -0.0000 0.9969
vn 0.2334 -0.0000 0.9724
vn 0.3827 -0.0000 0.9239
vn 0.5225 -0.0000 0.8526
vn 0.6494 -0.0000 0.7604
vn 0.7604 -0.0000 0.6494
vn 0.8526 -0.0000 0.5225
vn 0.9239 -0.0000 0.3827
vn 0.9724 -0.0000 0.2334
vn 0.9969 -0.0000 0.0785
vn 0.9969 -0.0000 -0.0785
vn 0.9724 -0.0000 -0.2334
vn 0.9239 -0.0000 -0.3827
vn 0.8526 -0.0000 -0.5225
vn 0.7604 -0.0000 -0.6494
vn 0.6494 -0.0000 -0.7604
vn 0.5225 -0.0000 -0.8526
vn 0.3827 -0.0000 -0.9239
vn 0.2334 -0.0000 -0.9724
vn 0.0785 -0.0000 -0.9969
vn -0.0000 -0.0000 1.0000
vn -0.9642 -0.0000 0.2653
vn 0.9621 -0.0000 0.2729
vn -0.9621 -0.0000 -0.2729
vn 0.9642 -0.0000 -0.2653
vn -0.1305 -0.0000 -0.9914
vn -0.3827 -0.0000 -0.9239
vn -0.6088 -0.0000 -0.7934
vn -0.7934 -0.0000 -0.6088
vn -0.9239 -0.0000 -0.3827
vn -0.9914 -0.0000 -0.1305
vn -0.9914 -0.0000 0.1305
vn -0.9239 -0.0000 0.3827
vn -0.7934 -0.0000 0.6088
vn -0.6088 -0.0000 0.7934
vn -0.3827 -0.0000 0.9239
vn -0.1305 -0.0000 0.9914
vn -0.0785 -0.0000 -0.9969
vn -0.2334 -0.0000 -0.9724
vn -0.5225 -0.0000 -0.8526
vn -0.6494 -0.0000 -0.7604
vn -0.7604 -0.0000 -0.6494
vn -0.8526 -0.0000 -0.5225
vn -0.9724 -0.0000 -0.2334
vn -0.9969 -0.0000 -0.0785
vn -0.9969 -0.0000 0.0785
vn -0.9724 -0.0000 0.2334
vn -0.8526 -0.0000 0.5225
vn -0.7604 -0.0000 0.6494
vn -0.6494 -0.0000 0.7604
vn -0.5225 -0.0000 0.8526
vn -0.2334 -0.0000 0.9724
vn -0.0785 -0.0000 0.9969
vn 0.8240 -0.0000 -0.5665
vn -0.8158 -0.0000 -0.5784
vn 0.8158 -0.0000 0.5784
vn -0.8240 -0.0000 0.5665
vn -0.0000 -1.0000 -0.0000
vn -0.0000 1.0000 -0.0000
s 0
f 1//1 2//1 3//1
f 1//1 3//1 4//1
f 1//2 4//2 5//2
f 6//3 5//3 7//3
f 6//2 1//2 5//2
f 8//3 6//3 7//3
f 9//4 7//4 10//4
f 9//4 8//4 7//4
f 11//5 10//5 12//5
f 11//5 9//5 10//5
f 13//6 12//6 14//6
f 13//7 14//7 15//7
f 13//6 11//6 12//6
f 16//7 13//7 15//7
f 17//8 15//8 18//8
f 17//8 16//8 15//8
f 19//9 18//9 20//9
f 19//10 20//10 21//10
f 19//9 17//9 18//9
f 22//10 19//10 21//10
f 23//11 21//11 24//11
f 23//12 24//12 25//12
f 23//11 22//11 21//11
f 26//12 23//12 25//12
f 27//13 28//13 26//13
f 25//13 27//13 26//13
f 29//14 30//14 31//14
f 32//15 29//15 33//15
f 29//14 31//14 33//14
f 34//16 32//16 35//16
f 32//15 33//15 35//15
f 34//16 35//16 36//16
f 37//17 34//17 38//17
f 34//17 36//17 38//17
f 39//18 37//18 40//18
f 37//18 38//18 40//18
f 41//19 39//19 42//19
f 39//19 40//19 42//19
f 43//20 41//20 44//20
f 45//21 43//21 44//21
f 41//20 42//20 44//20
f 45//21 44//21 46//21
f 47//22 45//22 48//22
f 45//22 46//22 48//22
f 49//23 47//23 50//23
f 51//24 49//24 50//24
f 47//23 48//23 50//23
f 51//24 50//24 52//24
f 53//25 51//25 54//25
f 51//25 52//25 54//25
f 55//26 53//26 56//26
f 53//26 54//26 56//26
f 55//27 56//27 57//27
f 58//27 55//27 57//27
f 58//28 57//28 59//28
f 60//28 58//28 59//28
f 61//29 60//29 59//29
f 61//29 59//29 62//29
f 61//30 62//30 63//30
f 64//30 61//30 63//30
f 64//31 63//31 65//31
f 66//31 64//31 65//31
f 66//32 65//32 67//32
f 68//32 66//32 67//32
f 27//33 68//33 67//33
f 27//33 67//33 28//33
f 69//34 70//34 31//34
f 30//34 69//34 31//34
f 69//35 71//35 72//35
f 69//35 72//35 70//35
f 73//36 74//36 72//36
f 71//36 73//36 72//36
f 75//34 76//34 74//34
f 73//34 75//34 74//34
f 75//35 77//35 78//35
f 75//35 78//35 76//35
f 79//36 80//36 78//36
f 77//36 79//36 78//36
f 79//34 81//34 82//34
f 79//34 82//34 80//34
f 83//37 82//37 81//37
f 84//37 82//37 83//37
f 84//13 83//13 85//13
f 86//13 84//13 85//13
f 87//38 86//38 85//38
f 87//38 85//38 88//38
f 87//37 88//37 89//37
f 90//37 87//37 89//37
f 90//13 89//13 91//13
f 92//13 90//13 91//13
f 93//38 92//38 91//38
f 93//38 91//38 94//38
f 95//13 93//13 94//13
f 95//13 94//13 96//13
f 97//39 95//39 96//39
f 97//39 96//39 98//39
f 99//40 98//40 100//40
f 99//40 97//40 98//40
f 101//41 100//41 102//41
f 101//41 99//41 100//41
f 103//42 102//42 104//42
f 103//42 101//42 102//42
f 105//43 104//43 106//43
f 105//44 106//44 107//44
f 105//43 103//43 104//43
f 108//44 105//44 107//44
f 109//45 107//45 110//45
f 109//46 110//46 111//46
f 109//45 108//45 107//45
f 112//46 109//46 111//46
f 113//47 111//47 114//47
f 113//47 112//47 111//47
f 115//48 114//48 116//48
f 115//48 113//48 114//48
f 117//49 116//49 118//49
f 117//50 118//50 119//50
f 117//49 115//49 116//49
f 120//50 117//50 119//50
f 121//34 120//34 119//34
f 121//34 119//34 122//34
f 123//51 124//51 125//51
f 123//51 125//51 126//51
f 127//52 123//52 128//52
f 123//52 126//52 128//52
f 129//40 127//40 130//40
f 127//40 128//40 130//40
f 131//53 129//53 132//53
f 129//53 130//53 132//53
f 133//54 131//54 134//54
f 135//55 133//55 134//55
f 131//54 132//54 134//54
f 136//56 135//56 137//56
f 135//55 134//55 137//55
f 136//56 137//56 138//56
f 139//43 136//43 140//43
f 136//43 138//43 140//43
f 141//57 139//57 142//57
f 143//58 141//58 142//58
f 139//57 140//57 142//57
f 143//58 142//58 144//58
f 145//59 143//59 146//59
f 143//59 144//59 146//59
f 147//60 145//60 148//60
f 149//46 147//46 148//46
f 145//60 146//60 148//60
f 150//61 149//61 151//61
f 149//46 148//46 151//46
f 150//61 151//61 152//61
f 150//62 152//62 153//62
f 154//62 150//62 153//62
f 155//63 154//63 153//63
f 155//63 153//63 156//63
f 157//64 155//64 156//64
f 157//64 156//64 158//64
f 157//49 158//49 159//49
f 160//49 157//49 159//49
f 161//65 160//65 159//65
f 161//65 159//65 162//65
f 161//66 162//66 121//66
f 122//66 161//66 121//66
f 163//13 125//13 124//13
f 163//13 124//13 164//13
f 163//67 164//67 165//67
f 166//67 163//67 165//67
f 165//68 167//68 168//68
f 165//68 168//68 166//68
f 169//13 170//13 168//13
f 167//13 169//13 168//13
f 171//69 172//69 170//69
f 169//69 171//69 170//69
f 173//67 174//67 172//67
f 171//67 173//67 172//67
f 175//34 176//34 174//34
f 173//34 175//34 174//34
f 177//70 178//70 176//70
f 175//70 177//70 176//70
f 179//69 180//69 178//69
f 177//69 179//69 178//69
f 181//34 182//34 180//34
f 179//34 181//34 180//34
f 183//68 184//68 182//68
f 181//68 183//68 182//68
f 185//70 186//70 184//70
f 183//70 185//70 184//70
f 3//34 2//34 186//34
f 185//34 3//34 186//34
f 97//71 99//71 35//71
f 108//71 50//71 48//71
f 108//71 52//71 50//71
f 108//71 48//71 105//71
f 90//71 92//71 87//71
f 95//71 33//71 31//71
f 172//71 174//71 176//71
f 95//71 97//71 33//71
f 172//71 176//71 178//71
f 109//71 54//71 52//71
f 84//71 87//71 78//71
f 109//71 52//71 108//71
f 84//71 86//71 87//71
f 84//71 78//71 82//71
f 152//71 17//71 19//71
f 186//71 166//71 184//71
f 92//71 93//71 72//71
f 92//71 72//71 87//71
f 152//71 19//71 153//71
f 93//71 95//71 31//71
f 182//71 184//71 180//71
f 180//71 184//71 178//71
f 186//71 2//71 125//71
f 112//71 56//71 54//71
f 187//71 156//71 19//71
f 112//71 57//71 56//71
f 187//71 19//71 22//71
f 112//71 54//71 109//71
f 187//71 22//71 23//71
f 187//71 23//71 26//71
f 187//71 26//71 28//71
f 187//71 120//71 121//71
f 187//71 158//71 156//71
f 187//71 159//71 158//71
f 187//71 162//71 159//71
f 187//71 121//71 162//71
f 187//71 28//71 120//71
f 113//71 57//71 112//71
f 59//71 57//71 113//71
f 151//71 17//71 152//71
f 148//71 16//71 17//71
f 148//71 17//71 151//71
f 146//71 13//71 16//71
f 62//71 113//71 115//71
f 184//71 172//71 178//71
f 146//71 16//71 148//71
f 62//71 59//71 113//71
f 163//71 166//71 186//71
f 63//71 62//71 115//71
f 63//71 115//71 117//71
f 72//71 93//71 70//71
f 65//71 63//71 117//71
f 67//71 117//71 120//71
f 125//71 163//71 186//71
f 67//71 65//71 117//71
f 144//71 13//71 146//71
f 126//71 2//71 1//71
f 166//71 172//71 184//71
f 126//71 125//71 2//71
f 28//71 67//71 120//71
f 142//71 11//71 13//71
f 168//71 172//71 166//71
f 142//71 13//71 144//71
f 168//71 170//71 172//71
f 128//71 1//71 6//71
f 128//71 126//71 1//71
f 93//71 31//71 70//71
f 140//71 11//71 142//71
f 130//71 128//71 6//71
f 138//71 9//71 11//71
f 101//71 40//71 38//71
f 101//71 42//71 40//71
f 138//71 11//71 140//71
f 132//71 6//71 8//71
f 132//71 130//71 6//71
f 137//71 8//71 9//71
f 103//71 44//71 42//71
f 137//71 9//71 138//71
f 103//71 42//71 101//71
f 134//71 132//71 8//71
f 134//71 8//71 137//71
f 99//71 36//71 35//71
f 99//71 38//71 36//71
f 99//71 101//71 38//71
f 19//71 156//71 153//71
f 105//71 46//71 44//71
f 105//71 48//71 46//71
f 78//71 72//71 74//71
f 78//71 74//71 76//71
f 78//71 80//71 82//71
f 105//71 44//71 103//71
f 78//71 87//71 72//71
f 97//71 35//71 33//71
f 32//72 100//72 98//72
f 47//72 49//72 107//72
f 49//72 51//72 107//72
f 106//72 47//72 107//72
f 88//72 91//72 89//72
f 30//72 29//72 96//72
f 175//72 173//72 171//72
f 29//72 98//72 96//72
f 177//72 175//72 171//72
f 51//72 53//72 110//72
f 77//72 88//72 83//72
f 107//72 51//72 110//72
f 88//72 85//72 83//72
f 81//72 77//72 83//72
f 20//72 18//72 150//72
f 183//72 165//72 185//72
f 71//72 94//72 91//72
f 88//72 71//72 91//72
f 154//72 20//72 150//72
f 30//72 96//72 94//72
f 179//72 183//72 181//72
f 177//72 183//72 179//72
f 124//72 3//72 185//72
f 53//72 55//72 111//72
f 20//72 155//72 188//72
f 55//72 58//72 111//72
f 21//72 20//72 188//72
f 110//72 53//72 111//72
f 24//72 21//72 188//72
f 25//72 24//72 188//72
f 27//72 25//72 188//72
f 122//72 119//72 188//72
f 155//72 157//72 188//72
f 157//72 160//72 188//72
f 160//72 161//72 188//72
f 161//72 122//72 188//72
f 119//72 27//72 188//72
f 111//72 58//72 114//72
f 114//72 58//72 60//72
f 150//72 18//72 149//72
f 18//72 15//72 147//72
f 149//72 18//72 147//72
f 15//72 14//72 145//72
f 116//72 114//72 61//72
f 177//72 171//72 183//72
f 147//72 15//72 145//72
f 114//72 60//72 61//72
f 185//72 165//72 164//72
f 116//72 61//72 64//72
f 118//72 116//72 64//72
f 69//72 94//72 71//72
f 118//72 64//72 66//72
f 119//72 118//72 68//72
f 185//72 164//72 124//72
f 118//72 66//72 68//72
f 145//72 14//72 143//72
f 4//72 3//72 123//72
f 183//72 171//72 165//72
f 3//72 124//72 123//72
f 119//72 68//72 27//72
f 14//72 12//72 141//72
f 165//72 171//72 167//72
f 143//72 14//72 141//72
f 171//72 169//72 167//72
f 5//72 4//72 127//72
f 4//72 123//72 127//72
f 69//72 30//72 94//72
f 141//72 12//72 139//72
f 5//72 127//72 129//72
f 12//72 10//72 136//72
f 37//72 39//72 102//72
f 39//72 41//72 102//72
f 139//72 12//72 136//72
f 7//72 5//72 131//72
f 5//72 129//72 131//72
f 10//72 7//72 135//72
f 41//72 43//72 104//72
f 136//72 10//72 135//72
f 102//72 41//72 104//72
f 7//72 131//72 133//72
f 135//72 7//72 133//72
f 32//72 34//72 100//72
f 34//72 37//72 100//72
f 37//72 102//72 100//72
f 154//72 155//72 20//72
f 43//72 45//72 106//72
f 45//72 47//72 106//72
f 73//72 71//72 77//72
f 75//72 73//72 77//72
f 81//72 79//72 77//72
f 104//72 43//72 106//72
f 71//72 88//72 77//72
f 29//72 32//72 98//72
